<svg id="MDU" xmlns="http://www.w3.org/2000/svg" viewBox="0 0 626.87 375.13"><defs><style>.cls-1{isolation:isolate;}.cls-2{fill:#ff4800;}</style></defs><title>_MDU_logotyp1_RGB</title><path d="M281.56,435.73h14.66l11.34,33c1.58,4.6,2.37,7.76,2.37,7.76h.14s.72-3.16,2.3-7.83l11.42-33h14.57v54.93h-10V446.21h-.21s-1,4.24-3.16,10.56l-11.56,33.89h-7.9l-11.42-33.89C292,450.45,291,446.21,291,446.21h-.21v44.45h-9.2Z" transform="translate(-281.56 -233.44)"/><path d="M346.06,463.3c.29-7.33,6.11-11.92,15.8-11.92,11.35,0,15.73,4.67,15.73,14.87v14.07c0,2.44.72,3.38,3.23,3.38v7h-2.73c-5.67,0-8.11-1.43-9.12-5.82h-.21c-2.23,4-6.25,6.18-11.78,6.18-7.83,0-12.64-4.16-12.64-11.2a10.09,10.09,0,0,1,5.75-9.63c4-2.08,9.84-2.58,18.09-2.94v-1.94c0-5.17-2-7.54-6.39-7.54s-6.32,2.51-6.46,5.53Zm4.6-27.57h8.69v8.83h-8.69Zm17.59,38.2v-1.08c-6.74.36-10.34.94-12.35,2.37a4.71,4.71,0,0,0-1.94,4.17c0,3.16,2.09,5.17,5.6,5.17,4.24,0,8.69-3.16,8.69-10.63m-2.94-38.2h8.62v8.83h-8.62Z" transform="translate(-281.56 -233.44)"/><rect x="105.29" y="202.14" width="9.69" height="54.94"/><path d="M402.89,463.3c.28-7.32,6.1-11.92,15.8-11.92,11.34,0,15.72,4.67,15.72,14.87v14.07c0,2.44.72,3.38,3.24,3.38v7h-2.73c-5.68,0-8.12-1.43-9.12-5.81h-.22c-2.23,3.94-6.25,6.17-11.77,6.17-7.83,0-12.64-4.17-12.64-11.2a10.08,10.08,0,0,1,5.74-9.63c4-2.08,9.84-2.58,18.1-2.94v-1.94c0-5.17-2-7.54-6.4-7.54s-6.32,2.52-6.46,5.53Zm22.19,10.63v-1.08c-6.75.36-10.34.94-12.35,2.37a4.68,4.68,0,0,0-1.94,4.17c0,3.16,2.08,5.17,5.6,5.17,4.24,0,8.69-3.16,8.69-10.63" transform="translate(-281.56 -233.44)"/><path d="M443.39,452.24h9.12V460h.15a13.47,13.47,0,0,1,12.49-8.4h.65v9H464c-6.82,0-11,2.87-11,10.26v19.61h-9.63Z" transform="translate(-281.56 -233.44)"/><path d="M503.34,490.52h-9.27v-5.89h-.21a12.81,12.81,0,0,1-11.63,6.82c-9.41,0-16-5.89-16-19.68,0-13.35,7-20.39,16.66-20.39,5.17,0,8.91,2.66,10.63,6.18h.14v-22h9.7Zm-9.55-20.76c0-7.18-3.45-11.48-8.69-11.48-5.82,0-9.05,4.59-9.05,13.21,0,8,2.44,13.21,8.69,13.21,5.74,0,9.05-4.52,9.05-10.56Z" transform="translate(-281.56 -233.44)"/><path d="M510.32,463.3c.28-7.32,6.1-11.92,15.79-11.92,11.35,0,15.73,4.67,15.73,14.87v14.07c0,2.44.72,3.38,3.23,3.38v7h-2.72c-5.68,0-8.12-1.43-9.13-5.81H533c-2.23,3.94-6.25,6.17-11.78,6.17-7.83,0-12.64-4.17-12.64-11.2a10.09,10.09,0,0,1,5.75-9.63c4-2.08,9.83-2.58,18.09-2.94v-1.94c0-5.17-2-7.54-6.39-7.54s-6.32,2.52-6.46,5.53Zm22.19,10.63v-1.08c-6.76.36-10.34.94-12.36,2.37a4.7,4.7,0,0,0-1.94,4.17c0,3.16,2.09,5.17,5.61,5.17,4.23,0,8.69-3.16,8.69-10.63" transform="translate(-281.56 -233.44)"/><rect x="269.26" y="202.14" width="9.69" height="54.94"/><path d="M584.44,491.45c-12.06,0-18.31-8-18.31-20,0-11.64,6.68-20.11,18.24-20.11,12.57,0,17.67,8.62,17.67,19.32v3.08H575.89c.44,7.26,3.24,11.06,8.91,11.06,5.17,0,6.68-2.73,7.33-5h9.48c-1.22,7.32-7.33,11.7-17.17,11.7m7.76-24.2c-.36-5.74-2.59-9.62-7.9-9.62-5,0-7.69,3.81-8.33,10.05H592.2Z" transform="translate(-281.56 -233.44)"/><path d="M632.28,467.75c0-2.72-.07-5.24-1.22-6.82a6.21,6.21,0,0,0-5.31-2.3c-5.75,0-8.62,3.67-8.62,9.48v22.41h-9.7V452.24h9.27v6.39h.14a13.35,13.35,0,0,1,12.43-7.25c8.54,0,12.71,4.38,12.71,13.65v25.49h-9.7Z" transform="translate(-281.56 -233.44)"/><path d="M669.49,462.51c-.21-2.73-2.37-4.74-6.25-4.74s-6,2-6,4.74c0,2.51,1.44,3.81,4.89,4.31l6.24.86c7.4,1,11,4.38,11,11.2,0,8.26-6.68,12.64-16,12.64-10.06,0-15.66-4.3-16.16-12h9c.28,2.73,1.93,5.53,7.25,5.53,4.23,0,7-1.86,7-5,0-2.59-1-4-5.1-4.53l-6-.79c-7-.93-11-4.31-11-11.13s5.1-12.28,15.15-12.28c9.55,0,14.29,4.45,14.86,11.2Z" transform="translate(-281.56 -233.44)"/><path d="M347.63,543.53c0,2.73.15,5.24,1.29,6.83s2.88,2.29,5.18,2.29c5.74,0,8.54-3.88,8.54-11V520.77h9.62V559H363v-6.32h-.14c-1.87,3.88-5.82,7.12-12,7.12-8.54,0-12.78-4.17-12.78-13.15V520.77h9.55Z" transform="translate(-281.56 -233.44)"/><path d="M404.67,536.28c0-2.73-.07-5.24-1.22-6.82a6.2,6.2,0,0,0-5.31-2.3c-5.75,0-8.62,3.66-8.62,9.48V559h-9.69V520.77h9.26v6.39h.14a13.38,13.38,0,0,1,12.43-7.25c8.54,0,12.71,4.38,12.71,13.64V559h-9.7Z" transform="translate(-281.56 -233.44)"/><path d="M421.57,504.32h9.84v9.12h-9.84Zm.08,16.45h9.69v38.28h-9.69Z" transform="translate(-281.56 -233.44)"/><path d="M434.94,520.77h9.77L451.53,542a76.21,76.21,0,0,1,2.09,7.69h.14s.86-3.81,2.08-7.69l7-21.18h9.26L458.57,559H448.52Z" transform="translate(-281.56 -233.44)"/><path d="M491,560c-12.06,0-18.31-8.05-18.31-20,0-11.63,6.68-20.1,18.24-20.1,12.57,0,17.67,8.61,17.67,19.31v3.09H482.42c.43,7.25,3.23,11.06,8.91,11.06,5.17,0,6.68-2.73,7.32-5h9.49C506.92,555.6,500.81,560,491,560m7.76-24.2c-.36-5.75-2.59-9.63-7.9-9.63-5,0-7.69,3.81-8.33,10.06h16.23Z" transform="translate(-281.56 -233.44)"/><path d="M514.25,520.77h9.12v7.75h.14a13.48,13.48,0,0,1,12.5-8.4h.64v9h-1.79c-6.82,0-11,2.87-11,10.27V559h-9.62Z" transform="translate(-281.56 -233.44)"/><path d="M560,531c-.21-2.73-2.37-4.74-6.25-4.74s-6,2-6,4.74c0,2.51,1.44,3.8,4.89,4.3l6.24.87c7.4,1,11,4.38,11,11.2,0,8.26-6.68,12.64-16,12.64-10.06,0-15.66-4.31-16.16-12h9c.28,2.73,1.93,5.53,7.25,5.53,4.23,0,7-1.87,7-5,0-2.59-1-4-5.1-4.53l-6-.78c-7-.94-11-4.31-11-11.14,0-6.67,5.1-12.28,15.15-12.28,9.55,0,14.29,4.45,14.86,11.21Z" transform="translate(-281.56 -233.44)"/><path d="M575.68,504.32h9.84v9.12h-9.84Zm.07,16.45h9.69v38.28h-9.69Z" transform="translate(-281.56 -233.44)"/><path d="M605.56,509.92v10.85h8.9v6.89H605.7v18.89c0,4,1.51,5.6,5.39,5.6a28.76,28.76,0,0,0,3.59-.29v7.25a48.09,48.09,0,0,1-7,.51c-7.55,0-11.57-3.37-11.57-11.35V527.66H590v-6.75h1.29c5,0,5.89-1.08,5.89-8.19v-2.8Z" transform="translate(-281.56 -233.44)"/><path d="M635.44,560c-12.06,0-18.31-8.05-18.31-20,0-11.63,6.68-20.1,18.24-20.1,12.57,0,17.67,8.61,17.67,19.31v3.09H626.89c.44,7.25,3.24,11.06,8.91,11.06,5.18,0,6.68-2.73,7.33-5h9.48c-1.22,7.33-7.33,11.71-17.17,11.71m7.76-24.2c-.36-5.75-2.58-9.63-7.9-9.63-5,0-7.69,3.81-8.33,10.06H643.2Z" transform="translate(-281.56 -233.44)"/><path d="M670.21,509.92v10.85h8.91v6.89h-8.76v18.89c0,4,1.5,5.6,5.38,5.6a28.76,28.76,0,0,0,3.59-.29v7.25a48.09,48.09,0,0,1-7,.51c-7.55,0-11.57-3.37-11.57-11.35V527.66h-6.17v-6.75h1.29c5,0,5.89-1.08,5.89-8.19v-2.8Z" transform="translate(-281.56 -233.44)"/><path d="M449.44,461.4h0Z" transform="translate(-281.56 -233.44)"/><g class="cls-1"><rect class="cls-2" x="113.39" y="3.85" width="56.69" height="170.08"/><path class="cls-2" d="M495.74,233.44c-16.14,0-30.17,4.42-41.55,8.79v.56c16.24-2.32,54.16.3,54.16,65.42v99.16H565V302.08c0-60.5-35.46-68.66-69.3-68.64" transform="translate(-281.56 -233.44)"/><path class="cls-2" d="M609.64,233.44h0c-20.51.06-41.4,3-58.36,11.67v.56c28-2.71,70.46-3.93,70.46,64.81v96.89h56.69V302.07c0-60.19-35.11-68.48-68.79-68.63" transform="translate(-281.56 -233.44)"/></g><g class="cls-1"><path class="cls-2" d="M905.2,435.73v80c0,70.39-29.26,92.82-70.87,92.82-44.63,0-70.86-11.09-70.86-81.48V435.73h-56.7v80c0,70.39,29.26,92.82,70.87,92.82,44.63,0,70.87-11.09,70.87-81.48V435.73Z" transform="translate(-281.56 -233.44)"/></g><rect class="cls-2" x="425.21" y="3.85" width="56.69" height="170.08"/><path class="cls-2" d="M766,407.09c51.86,0,82.32-32.89,82.32-84.68S817.88,237.58,766,237.58V237a207.21,207.21,0,0,1,32.91-2.38c49.58,0,109.51,18.34,109.51,87.63S848.51,410,798.93,410A207.21,207.21,0,0,1,766,407.66Z" transform="translate(-281.56 -233.44)"/><polyline class="cls-2" points="170.08 173.93 170.08 3.85 113.39 3.85"/></svg>